<svg width="320" height="96" viewBox="0 0 320 96" fill="none" xmlns="http://www.w3.org/2000/svg" role="img" aria-labelledby="title desc">
  <title id="title">Diary logo</title>
  <desc id="desc">A polished book and checkmark logo for a local school diary.</desc>
  <defs>
    <linearGradient id="book" x1="10" y1="12" x2="82" y2="86" gradientUnits="userSpaceOnUse">
      <stop stop-color="#1E807A"/>
      <stop offset="1" stop-color="#0F514F"/>
    </linearGradient>
    <linearGradient id="page" x1="34" y1="18" x2="72" y2="78" gradientUnits="userSpaceOnUse">
      <stop stop-color="#FFFFFF"/>
      <stop offset="1" stop-color="#EAF5F1"/>
    </linearGradient>
    <linearGradient id="accent" x1="19" y1="21" x2="72" y2="76" gradientUnits="userSpaceOnUse">
      <stop stop-color="#D6A431"/>
      <stop offset="1" stop-color="#D96C4A"/>
    </linearGradient>
    <filter id="shadow" x="0" y="4" width="98" height="96" filterUnits="userSpaceOnUse" color-interpolation-filters="sRGB">
      <feFlood flood-opacity="0" result="BackgroundImageFix"/>
      <feColorMatrix in="SourceAlpha" type="matrix" values="0 0 0 0 0 0 0 0 0 0 0 0 0 0 0 0 0 0 127 0" result="hardAlpha"/>
      <feOffset dy="8"/>
      <feGaussianBlur stdDeviation="8"/>
      <feColorMatrix type="matrix" values="0 0 0 0 0.09 0 0 0 0 0.13 0 0 0 0 0.17 0 0 0 0.18 0"/>
      <feBlend mode="normal" in2="BackgroundImageFix" result="effect1_dropShadow_1_1"/>
      <feBlend mode="normal" in="SourceGraphic" in2="effect1_dropShadow_1_1" result="shape"/>
    </filter>
  </defs>
  <g filter="url(#shadow)">
    <rect x="14" y="14" width="70" height="70" rx="16" fill="url(#book)"/>
    <path d="M31 25.5C31 22.46 33.46 20 36.5 20H70C72.21 20 74 21.79 74 24V72.5C74 74.43 72.43 76 70.5 76H36.5C33.46 76 31 73.54 31 70.5V25.5Z" fill="url(#page)"/>
    <path d="M31 25.5C31 22.46 33.46 20 36.5 20H43V76H36.5C33.46 76 31 73.54 31 70.5V25.5Z" fill="url(#accent)"/>
    <path d="M51 36H66" stroke="#176B68" stroke-width="4" stroke-linecap="round"/>
    <path d="M51 48H66" stroke="#176B68" stroke-width="4" stroke-linecap="round" opacity="0.75"/>
    <path d="M51 60H61" stroke="#176B68" stroke-width="4" stroke-linecap="round" opacity="0.5"/>
    <path d="M26 30H37" stroke="#0F514F" stroke-width="4" stroke-linecap="round" opacity="0.32"/>
    <path d="M21.5 57L29.5 65L46 46" stroke="white" stroke-width="7" stroke-linecap="round" stroke-linejoin="round"/>
    <path d="M21.5 57L29.5 65L46 46" stroke="#176B68" stroke-width="4" stroke-linecap="round" stroke-linejoin="round"/>
  </g>
  <text x="106" y="59" fill="#17202A" font-family="Inter, Segoe UI, Arial, sans-serif" font-size="31" font-weight="900" letter-spacing="0">Дневник</text>
</svg>
